<svg width="84" height="77" viewBox="0 0 84 77" fill="none" xmlns="http://www.w3.org/2000/svg">
<path fill-rule="evenodd" clip-rule="evenodd" d="M36.4729 1.174C33.1809 2.052 32.7938 2.527 32.2848 6.319C31.5708 11.64 27.9358 15 22.8918 15C19.9818 15 18.5938 14.242 15.6378 11.04L11.9818 7.08L6.62985 8.492C1.32985 9.89 -0.53315 11.3 0.12785 13.409C0.31585 14.009 1.41085 18.451 2.56085 23.28C10.2278 55.479 12.8588 65.541 13.7528 66.094C15.0098 66.871 23.6468 65.135 25.3508 63.762C26.0388 63.208 26.6008 60.976 26.6008 58.801C26.6008 55.763 27.2788 54.168 29.5238 51.923C34.9948 46.452 35.6008 47.437 35.6008 61.8C35.6008 70.422 35.9928 74.992 36.8008 75.8C38.3578 77.357 47.8439 77.357 49.4009 75.8C50.0609 75.14 50.6008 73.545 50.6008 72.255C50.6008 70.965 51.6869 68.823 53.0149 67.495C59.4769 61.033 68.2399 64.688 69.8089 74.5C70.0899 76.262 70.9019 76.5 76.6149 76.5H83.1009V47.5V18.5L76.8839 18.203L70.6669 17.906L69.2549 21.285C67.6389 25.153 63.2319 29 60.4159 29C59.3629 29 57.1949 28.324 55.5979 27.498C52.4639 25.878 52.1448 25.061 48.5048 9.308L46.3538 0L43.2278 0.103001C41.5078 0.160001 38.4679 0.642 36.4729 1.174ZM43.7838 12.25L45.1399 18.5L41.1198 19C37.3068 19.474 37.0849 19.691 36.7919 23.227C36.4479 27.371 37.9039 26.668 20.7169 30.998C16.1059 32.16 11.8118 32.911 11.1758 32.667C10.5398 32.423 9.18885 28.686 8.17385 24.362C7.15885 20.038 6.13985 15.997 5.90785 15.381C5.67685 14.766 6.41085 14.021 7.53985 13.726C8.92385 13.364 10.5969 14.128 12.6749 16.069C19.0109 21.988 27.6578 21.765 33.3788 15.537C35.1818 13.574 36.9258 10.625 37.2538 8.984C37.7078 6.715 38.3989 6 40.1389 6C42.1349 6 42.6008 6.799 43.7838 12.25ZM47.6008 26.262C52.2858 36.315 66.8859 36.41 72.7769 26.426C73.9189 24.49 75.6019 23 76.6459 23C78.3899 23 78.4969 24.344 78.5429 47C78.5879 69.186 78.4599 71 76.8459 70.997C75.8589 70.996 74.2319 69.38 73.1009 67.278C69.1639 59.962 60.5098 56.927 53.6698 60.464C50.3428 62.185 45.6008 67.54 45.6008 69.577C45.6008 70.36 44.7008 71 43.6008 71C41.7088 71 41.6008 70.333 41.6008 58.7C41.6008 45.076 41.1768 44 35.8018 44C28.6008 44 22.4958 49.276 20.9908 56.801C20.4868 59.318 17.9888 61.86 17.0878 60.774C16.9628 60.623 15.5179 54.875 13.8769 48C11.7999 39.3 11.2288 35.305 11.9968 34.858C13.3668 34.061 33.4138 29 35.2008 29C36.1028 29 36.5969 30.93 36.8029 35.25C37.0299 40.007 37.4588 41.5 38.6008 41.5C39.8058 41.5 40.1579 39.678 40.3889 32.25L40.6758 23L43.3889 23.022C45.4559 23.038 46.4578 23.809 47.6008 26.262ZM45.6008 40C45.6008 41.289 46.1068 41.998 46.8508 41.75C47.5388 41.521 48.1008 40.733 48.1008 40C48.1008 39.267 47.5388 38.479 46.8508 38.25C46.1068 38.002 45.6008 38.711 45.6008 40ZM54.0098 39.376C53.1628 41.584 54.2899 42.711 55.8179 41.183C56.7199 40.281 56.7229 39.722 55.8339 38.833C54.9439 37.943 54.5098 38.072 54.0098 39.376ZM62.1109 38.984C61.3739 40.177 62.3098 42 63.6598 42C64.8768 42 64.8848 39.293 63.6698 38.543C63.1578 38.226 62.4569 38.425 62.1109 38.984ZM70.1009 39C69.3719 40.18 70.3179 42 71.6599 42C72.1779 42 72.6009 41.1 72.6009 40C72.6009 37.891 71.1459 37.309 70.1009 39Z" fill="white"/>
</svg>
