<svg width="395" height="83" viewBox="0 0 395 83" fill="none" xmlns="http://www.w3.org/2000/svg">
<path fill-rule="evenodd" clip-rule="evenodd" d="M36.4729 1.174C33.1809 2.052 32.7938 2.527 32.2848 6.319C31.5708 11.64 27.9358 15 22.8918 15C19.9818 15 18.5938 14.242 15.6378 11.04L11.9818 7.08L6.62985 8.492C1.32985 9.89 -0.53315 11.3 0.12785 13.409C0.31585 14.009 1.41085 18.451 2.56085 23.28C10.2278 55.479 12.8588 65.541 13.7528 66.094C15.0098 66.871 23.6468 65.135 25.3508 63.762C26.0388 63.208 26.6008 60.976 26.6008 58.801C26.6008 55.763 27.2788 54.168 29.5238 51.923C34.9948 46.452 35.6008 47.437 35.6008 61.8C35.6008 70.422 35.9928 74.992 36.8008 75.8C38.3578 77.357 47.8439 77.357 49.4009 75.8C50.0609 75.14 50.6008 73.545 50.6008 72.255C50.6008 70.965 51.6869 68.823 53.0149 67.495C59.4769 61.033 68.2399 64.688 69.8089 74.5C70.0899 76.262 70.9019 76.5 76.6149 76.5H83.1009V47.5V18.5L76.8839 18.203L70.6669 17.906L69.2549 21.285C67.6389 25.153 63.2319 29 60.4159 29C59.3629 29 57.1949 28.324 55.5979 27.498C52.4639 25.878 52.1448 25.061 48.5048 9.308L46.3538 0L43.2278 0.103001C41.5078 0.160001 38.4679 0.642 36.4729 1.174ZM116.621 16.25C110.852 19.197 108.368 23.988 108.295 32.304C108.195 43.814 110.864 46.383 129.737 52.948C144.997 58.255 146.601 59.202 146.601 62.901C146.601 67.495 144.916 68.099 132.956 67.785L122.101 67.5L121.785 64.75C121.474 62.049 121.346 62 114.63 62H107.791L108.313 66.25C109.408 75.164 114.869 80.39 124.323 81.571C133.239 82.685 148.116 81.462 151.874 79.306C160.973 74.085 162.479 54.769 154.288 48.326C152.883 47.221 144.954 43.949 136.667 41.056L121.601 35.796V32.005C121.601 27.261 122.254 27 134.111 27C144.318 27 146.601 28.019 146.601 32.571C146.601 34.899 146.877 35 153.241 35H159.881L159.316 29.532C158.587 22.459 156.135 18.437 151.057 15.979C147.628 14.319 144.879 14 133.997 14C122.516 14 120.519 14.259 116.621 16.25ZM258.808 42.929C259.088 70.534 259.197 71.987 261.206 74.679C264.347 78.89 268.914 81.127 275.607 81.734L281.601 82.278V75.194V68.11L276.851 67.805L272.101 67.5L271.823 53.75L271.545 40H276.573H281.601V33.555V27.11L276.851 26.805L272.101 26.5L271.803 20.25L271.506 14H265.01H258.514L258.808 42.929ZM43.7838 12.25L45.1399 18.5L41.1198 19C37.3068 19.474 37.0849 19.691 36.7919 23.227C36.4479 27.371 37.9039 26.668 20.7169 30.998C16.1059 32.16 11.8118 32.911 11.1758 32.667C10.5398 32.423 9.18885 28.686 8.17385 24.362C7.15885 20.038 6.13985 15.997 5.90785 15.381C5.67685 14.766 6.41085 14.021 7.53985 13.726C8.92385 13.364 10.5969 14.128 12.6749 16.069C19.0109 21.988 27.6578 21.765 33.3788 15.537C35.1818 13.574 36.9258 10.625 37.2538 8.984C37.7078 6.715 38.3989 6 40.1389 6C42.1349 6 42.6008 6.799 43.7838 12.25ZM184.214 27.054C174.506 29.481 167.954 36.191 165.563 46.157C162.89 57.303 167.006 71.383 174.532 76.835C186.001 85.143 207.231 82.907 215.123 72.56C222.434 62.975 222.394 44.973 215.042 35.334C209.688 28.314 194.979 24.364 184.214 27.054ZM246.543 26.948C245.135 27.375 242.998 28.252 241.793 28.897C239.98 29.868 239.601 29.805 239.601 28.535C239.601 27.301 238.228 27 232.601 27H225.601V54.546V82.091L232.351 81.796L239.101 81.5L239.611 63C239.891 52.825 240.49 43.744 240.941 42.82C241.898 40.86 246.673 39 250.75 39C253.592 39 253.601 38.98 253.601 32.5C253.601 26.4 253.462 26.005 251.351 26.086C250.113 26.133 247.95 26.521 246.543 26.948ZM302.411 27.333C289.555 30.971 284.015 39.938 284.784 55.868C285.321 66.977 288.131 73.093 294.586 77.198C300.89 81.207 305.873 82.307 315.149 81.739C327.224 81 335.088 76.072 338.091 67.363L339.423 63.5L332.878 63.201C327.47 62.954 325.966 63.247 324.217 64.885C317.5 71.176 302.796 70.146 299.167 63.128C298.306 61.462 297.601 59.852 297.601 59.55C297.601 59.247 307.341 59 319.245 59H340.888L340.228 51.897C339.499 44.057 336.617 36.303 333.258 33.147C327.174 27.432 312.102 24.591 302.411 27.333ZM340.601 27.563C340.601 27.873 344.371 33.888 348.979 40.929L357.357 53.73L348.011 67.115C342.87 74.477 338.65 80.838 338.633 81.25C338.615 81.662 342.119 82 346.42 82H354.239L360.072 73.5C363.28 68.825 366.174 65.006 366.503 65.013C366.832 65.02 369.279 68.373 371.941 72.465C374.603 76.557 377.373 80.396 378.096 80.996C378.87 81.638 382.559 81.967 387.057 81.794L394.702 81.5L385.064 67.351L375.426 53.202L383.332 41.351C387.68 34.833 391.571 28.938 391.979 28.25C392.546 27.292 390.842 27 384.69 27H376.662L371.601 34.5C368.817 38.625 366.361 42 366.142 42C365.922 42 363.64 38.625 361.069 34.5L356.394 27H348.497C344.154 27 340.601 27.254 340.601 27.563ZM47.6008 26.262C52.2858 36.315 66.8859 36.41 72.7769 26.426C73.9189 24.49 75.6019 23 76.6459 23C78.3899 23 78.4969 24.344 78.5429 47C78.5879 69.186 78.4599 71 76.8459 70.997C75.8589 70.996 74.2319 69.38 73.1009 67.278C69.1639 59.962 60.5098 56.927 53.6698 60.464C50.3428 62.185 45.6008 67.54 45.6008 69.577C45.6008 70.36 44.7008 71 43.6008 71C41.7088 71 41.6008 70.333 41.6008 58.7C41.6008 45.076 41.1768 44 35.8018 44C28.6008 44 22.4958 49.276 20.9908 56.801C20.4868 59.318 17.9888 61.86 17.0878 60.774C16.9628 60.623 15.5179 54.875 13.8769 48C11.7999 39.3 11.2288 35.305 11.9968 34.858C13.3668 34.061 33.4138 29 35.2008 29C36.1028 29 36.5969 30.93 36.8029 35.25C37.0299 40.007 37.4588 41.5 38.6008 41.5C39.8058 41.5 40.1579 39.678 40.3889 32.25L40.6758 23L43.3889 23.022C45.4559 23.038 46.4578 23.809 47.6008 26.262ZM201.634 40.517C209.402 44.534 210.6 58.794 203.723 65.383C201.429 67.58 199.574 68.283 194.954 68.702C183.458 69.744 177.606 64.615 177.611 53.5C177.614 46.96 179.637 42.658 183.791 40.353C187.025 38.558 198.041 38.659 201.634 40.517ZM323.066 42.104C325.01 43.811 326.601 45.611 326.601 46.104C326.601 46.597 320.301 47 312.601 47C297.569 47 296.261 46.477 300.851 42.302C303.946 39.486 305.121 39.169 312.816 39.079C318.956 39.007 319.834 39.266 323.066 42.104ZM45.6008 40C45.6008 41.289 46.1068 41.998 46.8508 41.75C47.5388 41.521 48.1008 40.733 48.1008 40C48.1008 39.267 47.5388 38.479 46.8508 38.25C46.1068 38.002 45.6008 38.711 45.6008 40ZM54.0098 39.376C53.1628 41.584 54.2899 42.711 55.8179 41.183C56.7199 40.281 56.7229 39.722 55.8339 38.833C54.9439 37.943 54.5098 38.072 54.0098 39.376ZM62.1109 38.984C61.3739 40.177 62.3098 42 63.6598 42C64.8768 42 64.8848 39.293 63.6698 38.543C63.1578 38.226 62.4569 38.425 62.1109 38.984ZM70.1009 39C69.3719 40.18 70.3179 42 71.6599 42C72.1779 42 72.6009 41.1 72.6009 40C72.6009 37.891 71.1459 37.309 70.1009 39Z" fill="#28774C"/>
</svg>
